Coordinates
version=1
nRows=18
nColumns=22
inDegrees=yes

Units are S.I. units (second, meters, Newtons, ...)
If the header above contains a line with 'inDegrees', this indicates whether rotational values are in degrees (yes) or radians (no).

endheader
time	pelvis_tilt	pelvis_list	pelvis_rotation	pelvis_tx	pelvis_ty	pelvis_tz	hip_flexion_r	hip_adduction_r	hip_rotation_r	knee_angle_r	ankle_angle_r	subtalar_angle_r	hip_flexion_l	hip_adduction_l	hip_rotation_l	knee_angle_l	ankle_angle_l	subtalar_angle_l	lumbar_extension	lumbar_bending	lumbar_rotation
      3.99000000	     -0.11824476	      2.22541031	    155.80199016	      0.47509762	      0.99890688	     -0.39895486	     24.49132853	     -0.14667510	      5.98865965	    -21.70416423	      3.36129609	      9.81115915	      2.33786335	      5.03757937	      5.53701669	    -19.73512608	     16.99002064	     -8.93949716	    -15.64142288	      1.03082229	      0.58401696
      4.00000000	     -0.08177020	      2.22310097	    156.36548261	      0.46955908	      0.99815921	     -0.40197845	     24.44608093	      0.16326576	      7.35627727	    -19.72359286	      2.72305365	     11.09386707	      1.96823530	      4.92614864	      5.93696900	    -19.70549327	     17.35297063	     -8.83027536	    -15.67696411	      1.06067417	      0.60099169
      4.01000000	     -0.06829363	      2.21833368	    156.94778317	      0.46388267	      0.99735396	     -0.40499671	     24.35751357	      0.41938241	      8.89650992	    -17.90951668	      2.18518141	     12.39987210	      1.58509729	      4.82473153	      6.35219883	    -19.70375313	     17.72922707	     -8.70694539	    -15.72531899	      1.09098413	      0.60762585
      4.02000000	     -0.07916793	      2.21456036	    157.55044003	      0.45804181	      0.99649955	     -0.40800639	     24.23536620	      0.61691843	     10.52304169	    -16.30137042	      1.79387965	     13.64347640	      1.18211212	      4.73017095	      6.78086418	    -19.72652300	     18.11714178	     -8.57672326	    -15.78452549	      1.12727812	      0.60085039
      4.03000000	     -0.11807256	      2.21024744	    158.17947488	      0.45203896	      0.99560144	     -0.41098824	     24.09526689	      0.75188957	     12.13595469	    -14.94674729	      1.58037660	     14.76589579	      0.76080906	      4.64620407	      7.23391297	    -19.78184998	     18.50924584	     -8.44464736	    -15.85902756	      1.16728375	      0.57926889
      4.04000000	     -0.18309041	      2.20726657	    158.83253675	      0.44586541	      0.99467233	     -0.41395245	     23.95152936	      0.83692500	     13.63325876	    -13.88138878	      1.53047724	     15.70174591	      0.32570573	      4.56743254	      7.69869102	    -19.87848796	     18.88648414	     -8.31879438	    -15.94245432	      1.21318144	      0.54585132
      4.05000000	     -0.27134220	      2.19472775	    159.52035590	      0.43953219	      0.99370596	     -0.41685139	     23.83127958	      0.87056628	     14.90529003	    -13.14987645	      1.65907333	     16.46989704	     -0.12354634	      4.50875414	      8.22278664	    -19.99966789	     19.27071475	     -8.19091007	    -16.03121843	      1.26046692	      0.48672291
      4.06000000	     -0.37025940	      2.17781478	    160.23453646	      0.43305575	      0.99269875	     -0.41971132	     23.74474080	      0.87958233	     15.89586925	    -12.75291300	      1.91327560	     17.04548372	     -0.56759283	      4.45474508	      8.76775225	    -20.16161834	     19.65823029	     -8.06698974	    -16.11290760	      1.31627891	      0.41208123
      4.07000000	     -0.46950192	      2.15925675	    160.96269612	      0.42646757	      0.99165305	     -0.42254959	     23.69835218	      0.88701196	     16.61025944	    -12.67953568	      2.20363343	     17.43626625	     -0.99506546	      4.39752812	      9.31370819	    -20.36455182	     20.03230351	     -7.94914621	    -16.18032035	      1.38278406	      0.32849914
      4.08000000	     -0.56547861	      2.13187616	    161.69297357	      0.41979762	      0.99056823	     -0.42537685	     23.69256777	      0.89684662	     17.06949105	    -12.90290974	      2.45795029	     17.65633921	     -1.39896640	      4.34515136	      9.85568153	    -20.60928448	     20.40186101	     -7.84396446	    -16.22930301	      1.44808918	      0.26470565
      4.09000000	     -0.65443249	      2.10472490	    162.41596407	      0.41305225	      0.98946469	     -0.42823477	     23.71860509	      0.92752892	     17.33054075	    -13.39133565	      2.62968431	     17.76031445	     -1.78888427	      4.28289144	     10.36821923	    -20.87487373	     20.75750251	     -7.74911153	    -16.26026076	      1.51722698	      0.19947021
      4.10000000	     -0.73522151	      2.08106800	    163.14209262	      0.40624074	      0.98836168	     -0.43107332	     23.75860010	      0.97145989	     17.42462065	    -14.08306544	      2.68659709	     17.77193491	     -2.15261289	      4.21507017	     10.87900329	    -21.18611958	     21.07970660	     -7.64822845	    -16.27559459	      1.59844102	      0.16050884
      4.11000000	     -0.79479700	      2.05895671	    163.86898417	      0.39936358	      0.98725817	     -0.43390587	     23.83286810	      1.03132055	     17.36588106	    -14.95787203	      2.60175822	     17.63142410	     -2.47684098	      4.13903967	     11.37876499	    -21.54102931	     21.36699997	     -7.53547850	    -16.25919947	      1.68919297	      0.14786544
      4.12000000	     -0.82377731	      2.04946660	    164.58409733	      0.39238431	      0.98616477	     -0.43676865	     23.94537157	      1.12456344	     17.21290553	    -15.98273224	      2.39923468	     17.32454907	     -2.76639351	      4.03781773	     11.83969305	    -21.92003572	     21.64749906	     -7.43739829	    -16.19625635	      1.80309438	      0.13483186
      4.13000000	     -0.79661311	      2.02580656	    165.26102918	      0.38531659	      0.98506385	     -0.43968439	     24.14034336	      1.23885404	     16.98582251	    -17.12940529	      2.06368254	     16.57497795	     -2.97784567	      3.93900219	     12.24761701	    -22.34167696	     21.82331423	     -7.29507376	    -16.05131529	      1.90665181	      0.19739760
      4.14000000	     -0.77119632	      2.04355599	    165.92250091	      0.37811979	      0.98410167	     -0.44260040	     24.32713762	      1.38834290	     16.66610977	    -18.34258111	      1.71171062	     15.79575285	     -3.18799597	      3.80210341	     12.62453550	    -22.80498744	     21.99449339	     -7.17748722	    -15.90562332	      2.05394802	      0.28071862
      4.15000000	     -0.73293348	      2.08767215	    166.54855627	      0.37080776	      0.98328461	     -0.44551627	     24.53380211	      1.56232787	     16.25055833	    -19.60400392	      1.38471189	     14.88959742	     -3.36792537	      3.64256944	     12.95131099	    -23.32396639	     22.09743304	     -7.03271785	    -15.73960200	      2.22945261	      0.41999822
      4.16000000	     -0.68868398	      2.16601689	    167.12880154	      0.36336797	      0.98266371	     -0.44844368	     24.74121852	      1.76186279	     15.74354774	    -20.87903617	      1.13736996	     13.93479282	     -3.53250926	      3.45533804	     13.23391738	    -23.88756188	     22.11566384	     -6.84181795	    -15.56043307	      2.43796844	      0.61209270
